<mxfile host="app.diagrams.net" modified="2024-03-13T20:17:43.955Z" agent="Mozilla/5.0 (Windows NT 10.0; Win64; x64) AppleWebKit/537.36 (KHTML, like Gecko) Chrome/121.0.0.0 Safari/537.36" etag="TtP8mneQ8UirgR7Nw1mB" version="24.0.5" type="github">
  <diagram name="第 1 页" id="Zz-yE3sN_qA-QzTztnrS">
    <mxGraphModel dx="1038" dy="578" grid="0" gridSize="10" guides="1" tooltips="1" connect="1" arrows="1" fold="1" page="1" pageScale="1" pageWidth="827" pageHeight="1169" background="#ffffff" math="1" shadow="0">
      <root>
        <mxCell id="0" />
        <mxCell id="1" parent="0" />
        <mxCell id="IohvMyqaD4Y5VaiA8dAe-308" style="edgeStyle=orthogonalEdgeStyle;rounded=0;orthogonalLoop=1;jettySize=auto;html=1;entryX=0;entryY=0.5;entryDx=0;entryDy=0;" edge="1" parent="1" source="IohvMyqaD4Y5VaiA8dAe-304" target="IohvMyqaD4Y5VaiA8dAe-306">
          <mxGeometry relative="1" as="geometry" />
        </mxCell>
        <mxCell id="IohvMyqaD4Y5VaiA8dAe-310" style="edgeStyle=orthogonalEdgeStyle;rounded=0;orthogonalLoop=1;jettySize=auto;html=1;entryX=0;entryY=0.5;entryDx=0;entryDy=0;" edge="1" parent="1" source="IohvMyqaD4Y5VaiA8dAe-304" target="IohvMyqaD4Y5VaiA8dAe-307">
          <mxGeometry relative="1" as="geometry" />
        </mxCell>
        <mxCell id="IohvMyqaD4Y5VaiA8dAe-304" value="&lt;font style=&quot;font-size: 14px;&quot; face=&quot;宋体&quot;&gt;数据&lt;/font&gt;" style="rounded=1;whiteSpace=wrap;html=1;" vertex="1" parent="1">
          <mxGeometry x="21" y="137" width="50" height="33" as="geometry" />
        </mxCell>
        <mxCell id="IohvMyqaD4Y5VaiA8dAe-311" style="edgeStyle=orthogonalEdgeStyle;rounded=0;orthogonalLoop=1;jettySize=auto;html=1;entryX=0;entryY=0.5;entryDx=0;entryDy=0;" edge="1" parent="1" source="IohvMyqaD4Y5VaiA8dAe-306" target="IohvMyqaD4Y5VaiA8dAe-312">
          <mxGeometry relative="1" as="geometry">
            <mxPoint x="282.4577723911831" y="103" as="targetPoint" />
          </mxGeometry>
        </mxCell>
        <mxCell id="IohvMyqaD4Y5VaiA8dAe-306" value="&lt;font style=&quot;font-size: 14px;&quot; face=&quot;宋体&quot;&gt;教师网络&lt;/font&gt;" style="rounded=1;whiteSpace=wrap;html=1;fillColor=#f8cecc;strokeColor=#b85450;" vertex="1" parent="1">
          <mxGeometry x="122" y="78" width="93" height="50" as="geometry" />
        </mxCell>
        <mxCell id="IohvMyqaD4Y5VaiA8dAe-315" style="edgeStyle=orthogonalEdgeStyle;rounded=0;orthogonalLoop=1;jettySize=auto;html=1;" edge="1" parent="1" source="IohvMyqaD4Y5VaiA8dAe-307" target="IohvMyqaD4Y5VaiA8dAe-314">
          <mxGeometry relative="1" as="geometry" />
        </mxCell>
        <mxCell id="IohvMyqaD4Y5VaiA8dAe-307" value="&lt;font style=&quot;font-size: 14px;&quot; face=&quot;宋体&quot;&gt;学生网络&lt;/font&gt;" style="rounded=1;whiteSpace=wrap;html=1;fillColor=#eeeeee;strokeColor=#36393d;" vertex="1" parent="1">
          <mxGeometry x="122" y="176" width="93" height="50" as="geometry" />
        </mxCell>
        <mxCell id="IohvMyqaD4Y5VaiA8dAe-321" style="edgeStyle=orthogonalEdgeStyle;rounded=0;orthogonalLoop=1;jettySize=auto;html=1;entryX=0.5;entryY=0;entryDx=0;entryDy=0;" edge="1" parent="1" source="IohvMyqaD4Y5VaiA8dAe-312" target="IohvMyqaD4Y5VaiA8dAe-319">
          <mxGeometry relative="1" as="geometry" />
        </mxCell>
        <mxCell id="IohvMyqaD4Y5VaiA8dAe-312" value="&lt;font style=&quot;font-size: 14px;&quot; face=&quot;宋体&quot;&gt;预测输出&lt;/font&gt;" style="rounded=1;whiteSpace=wrap;html=1;fillColor=#d5e8d4;strokeColor=#82b366;" vertex="1" parent="1">
          <mxGeometry x="260" y="85.5" width="72" height="35" as="geometry" />
        </mxCell>
        <mxCell id="IohvMyqaD4Y5VaiA8dAe-322" style="edgeStyle=orthogonalEdgeStyle;rounded=0;orthogonalLoop=1;jettySize=auto;html=1;entryX=0.5;entryY=1;entryDx=0;entryDy=0;" edge="1" parent="1" source="IohvMyqaD4Y5VaiA8dAe-314" target="IohvMyqaD4Y5VaiA8dAe-319">
          <mxGeometry relative="1" as="geometry" />
        </mxCell>
        <mxCell id="IohvMyqaD4Y5VaiA8dAe-314" value="&lt;font style=&quot;font-size: 14px;&quot; face=&quot;宋体&quot;&gt;预测输出&lt;/font&gt;" style="rounded=1;whiteSpace=wrap;html=1;fillColor=#d5e8d4;strokeColor=#82b366;" vertex="1" parent="1">
          <mxGeometry x="260" y="183.5" width="72" height="35" as="geometry" />
        </mxCell>
        <mxCell id="IohvMyqaD4Y5VaiA8dAe-319" value="&lt;font style=&quot;font-size: 14px;&quot; face=&quot;宋体&quot;&gt;蒸馏损失&lt;/font&gt;" style="rounded=1;whiteSpace=wrap;html=1;fillColor=#fff2cc;strokeColor=#d6b656;" vertex="1" parent="1">
          <mxGeometry x="341" y="137.5" width="58" height="32" as="geometry" />
        </mxCell>
      </root>
    </mxGraphModel>
  </diagram>
</mxfile>
